<svg display="none" xmlns="http://www.w3.org/2000/svg">
    <symbol id="smile" viewBox="0 0 30 30">
        <path fill-rule="evenodd" clip-rule="evenodd" d="M0 15C0 6.71573 6.71573 0 15 0C23.2843 0 30 6.71573 30 15C30 23.2843 23.2843 30 15 30C6.71573 30 0 23.2843 0 15ZM15 2C7.8203 2 2 7.8203 2 15C2 22.1797 7.8203 28 15 28C22.1797 28 28 22.1797 28 15C28 7.8203 22.1797 2 15 2ZM10 12H8V10H10V12ZM22 12H20V10H22V12ZM9.2 16.6L9.8 17.4C12.4 20.8667 17.6 20.8667 20.2 17.4L20.8 16.6L22.4 17.8L21.8 18.6C18.4 23.1333 11.6 23.1333 8.2 18.6L7.6 17.8L9.2 16.6Z"/>
    </symbol>

    <symbol id="heart" viewBox="0 0 30 26">
        <path fill-rule="evenodd" clip-rule="evenodd" d="M8.07107 2C4.71811 2 2 4.71811 2 8.07107C2 9.68122 2.63963 11.2254 3.77817 12.364L15 23.5858L26.2218 12.364C27.3604 11.2254 28 9.68121 28 8.07107C28 4.71811 25.2819 2 21.9289 2C20.3188 2 18.7746 2.63963 17.636 3.77817L15.7071 5.70711C15.3166 6.09763 14.6834 6.09763 14.2929 5.70711L12.364 3.77818C11.2254 2.63963 9.68121 2 8.07107 2ZM0 8.07107C0 3.61354 3.61354 0 8.07107 0C10.2116 0 12.2646 0.850343 13.7782 2.36396L15 3.58579L16.2218 2.36396C17.7354 0.850341 19.7884 0 21.9289 0C26.3865 0 30 3.61354 30 8.07107C30 10.2116 29.1497 12.2646 27.636 13.7782L15.7071 25.7071C15.3166 26.0976 14.6834 26.0976 14.2929 25.7071L2.36396 13.7782C0.850339 12.2646 0 10.2116 0 8.07107Z"/>
    </symbol>

    <symbol id="sad" viewBox="0 0 30 30">
        <path fill-rule="evenodd" clip-rule="evenodd" d="M0 15C0 6.71573 6.71573 0 15 0C23.2843 0 30 6.71573 30 15C30 23.2843 23.2843 30 15 30C6.71573 30 0 23.2843 0 15ZM15 2C7.8203 2 2 7.8203 2 15C2 22.1797 7.8203 28 15 28C22.1797 28 28 22.1797 28 15C28 7.8203 22.1797 2 15 2ZM10 12H8V10H10V12ZM22 12H20V10H22V12ZM7.6 20.2L8.2 19.4C11.6 14.8667 18.4 14.8667 21.8 19.4L22.4 20.2L20.8 21.4L20.2 20.6C17.6 17.1333 12.4 17.1333 9.8 20.6L9.2 21.4L7.6 20.2Z"/>
    </symbol>

    <symbol id="search" viewBox="0 0 20 20">
        <path d="M19.3613 18.2168L14.6012 13.2662C15.8251 11.8113 16.4957 9.98069 16.4957 8.07499C16.4957 3.62251 12.8732 0 8.4207 0C3.96821 0 0.345703 3.62251 0.345703 8.07499C0.345703 12.5275 3.96821 16.15 8.4207 16.15C10.0922 16.15 11.6851 15.6458 13.047 14.6888L17.8432 19.677C18.0436 19.8852 18.3133 20 18.6022 20C18.8757 20 19.1352 19.8957 19.3321 19.7061C19.7506 19.3034 19.764 18.6357 19.3613 18.2168ZM8.4207 2.10652C11.7118 2.10652 14.3892 4.78391 14.3892 8.07499C14.3892 11.3661 11.7118 14.0435 8.4207 14.0435C5.12961 14.0435 2.45222 11.3661 2.45222 8.07499C2.45222 4.78391 5.12961 2.10652 8.4207 2.10652Z"/>
    </symbol>

    <symbol id="logo" viewBox="0 0 106 24">
        <path d="M7.83984 12.4578C7.83984 9.9079 9.90693 7.84082 12.4568 7.84082L19.3822 7.84082C21.9321 7.84082 23.9992 9.9079 23.9992 12.4578C23.9992 15.0077 21.9321 17.0747 19.3822 17.0747H12.4568C9.90693 17.0747 7.83984 15.0077 7.83984 12.4578Z" fill="#FF868E"/>
        <path d="M12.4568 24C9.90693 24 7.83984 21.9329 7.83984 19.383L7.83984 12.4576C7.83984 9.90772 9.90693 7.84063 12.4568 7.84063C15.0067 7.84063 17.0738 9.90772 17.0738 12.4576V19.383C17.0738 21.9329 15.0067 24 12.4568 24Z" fill="#FF868E"/>
        <path d="M11.5427 2.8856C11.5427 4.47927 10.2508 5.7712 8.65709 5.7712C7.06341 5.7712 5.77148 4.47927 5.77148 2.8856C5.77148 1.29193 7.06341 0 8.65709 0C10.2508 0 11.5427 1.29193 11.5427 2.8856Z" fill="#FF868E"/>
        <path d="M5.7712 16.7367C5.7712 18.3303 4.47927 19.6223 2.8856 19.6223C1.29193 19.6223 0 18.3303 0 16.7367C0 15.143 1.29193 13.8511 2.8856 13.8511C4.47927 13.8511 5.7712 15.143 5.7712 16.7367Z" fill="#FF868E"/>
        <path d="M19.6228 2.8856C19.6228 4.47927 18.3308 5.7712 16.7372 5.7712C15.1435 5.7712 13.8516 4.47927 13.8516 2.8856C13.8516 1.29193 15.1435 0 16.7372 0C18.3308 0 19.6228 1.29193 19.6228 2.8856Z" fill="#FF868E"/>
        <path d="M5.7712 8.6566C5.7712 10.2503 4.47927 11.5422 2.8856 11.5422C1.29193 11.5422 0 10.2503 0 8.6566C0 7.06292 1.29193 5.771 2.8856 5.771C4.47927 5.771 5.7712 7.06292 5.7712 8.6566Z" fill="#FF868E"/>
        <path d="M32 18.0865V5.72168H37.7984C38.7712 5.72168 39.5648 5.90728 40.1792 6.27848C40.8064 6.64968 41.2736 7.15528 41.5808 7.79528C41.888 8.43528 42.0416 9.16488 42.0416 9.98408C42.0416 10.8161 41.8624 11.5521 41.504 12.1921C41.1584 12.8321 40.6592 13.3313 40.0064 13.6897C39.3664 14.0353 38.6048 14.2081 37.7216 14.2081H34.592V18.0865H32ZM34.592 12.1537H37.184C37.9264 12.1537 38.4832 11.9617 38.8544 11.5777C39.2384 11.1809 39.4304 10.6497 39.4304 9.98408C39.4304 9.26728 39.2512 8.72328 38.8928 8.35208C38.5344 7.96808 37.9968 7.77608 37.28 7.77608H34.592V12.1537Z" fill="#1D1D1D"/>
        <path d="M48.2174 18.2785C46.643 18.2785 45.395 17.8881 44.4734 17.1073C43.5518 16.3137 43.091 15.1169 43.091 13.5169C43.091 12.0705 43.475 10.9249 44.243 10.0801C45.0238 9.22248 46.1822 8.79368 47.7182 8.79368C49.1262 8.79368 50.2014 9.16488 50.9438 9.90728C51.699 10.6369 52.0766 11.5969 52.0766 12.7873V14.4385L45.491 14.4385C45.6318 15.1681 45.9646 15.6673 46.4894 15.9361C47.027 16.2049 47.7822 16.3393 48.755 16.3393C49.2414 16.3393 49.7342 16.2945 50.2334 16.2049C50.7454 16.1153 51.1806 16.0001 51.539 15.8593V17.7025C51.1166 17.8945 50.6238 18.0353 50.0606 18.1249C49.4974 18.2273 48.883 18.2785 48.2174 18.2785ZM45.491 12.8449H49.811V12.3457C49.811 11.8209 49.6574 11.4113 49.3502 11.1169C49.043 10.8097 48.5246 10.6561 47.795 10.6561C46.9374 10.6561 46.3358 10.8289 45.9902 11.1745C45.6574 11.5201 45.491 12.0769 45.491 12.8449Z" fill="#1D1D1D"/>
        <path d="M57.4909 18.2785C56.4413 18.2785 55.6604 18.0033 55.1485 17.4529C54.6493 16.9025 54.3997 16.1537 54.3997 15.2065V10.9825H53.1133V8.98568H54.3997V7.02728L56.9917 6.25928V8.98568H59.2957L59.142 10.9825H56.9917V15.0337C56.9917 15.5329 57.1068 15.8785 57.3372 16.0705C57.5676 16.2497 57.9261 16.3393 58.4125 16.3393C58.7709 16.3393 59.142 16.2753 59.5261 16.1473V17.9329C59.2444 18.0481 58.9373 18.1313 58.6045 18.1825C58.2717 18.2465 57.9005 18.2785 57.4909 18.2785Z" fill="#1D1D1D"/>
        <path d="M64.0626 18.2785C63.3843 18.2785 62.7379 18.2273 62.1234 18.1249C61.5091 18.0353 61.0163 17.9201 60.6451 17.7793V15.6289C61.0931 15.8081 61.5986 15.9489 62.1618 16.0513C62.725 16.1409 63.2435 16.1857 63.7171 16.1857C64.3571 16.1857 64.805 16.1473 65.0611 16.0705C65.3298 15.9937 65.4643 15.8209 65.4643 15.5521C65.4643 15.2449 65.2595 15.0209 64.8498 14.8801C64.4531 14.7393 63.8578 14.5409 63.0642 14.2849C62.2322 14.0033 61.5923 13.6641 61.1443 13.2673C60.6963 12.8705 60.4722 12.2817 60.4722 11.5009C60.4722 10.6305 60.7859 9.96488 61.413 9.50408C62.053 9.03048 63.077 8.79368 64.4851 8.79368C65.0482 8.79368 65.5794 8.83848 66.0787 8.92808C66.5779 9.00488 67.0003 9.10088 67.3459 9.21608V11.3473C67.0003 11.1809 66.6035 11.0593 66.1555 10.9825C65.7075 10.8929 65.2915 10.8481 64.9075 10.8481C64.357 10.8481 63.9155 10.8865 63.5827 10.9633C63.2627 11.0401 63.1026 11.2065 63.1026 11.4625C63.1026 11.7441 63.2755 11.9425 63.6211 12.0577C63.9795 12.1729 64.5299 12.3457 65.2723 12.5761C66.0019 12.7937 66.5715 13.0305 66.9811 13.2865C67.3907 13.5425 67.6786 13.8497 67.8451 14.2081C68.0115 14.5537 68.0947 14.9889 68.0947 15.5137C68.0947 17.3569 66.7506 18.2785 64.0626 18.2785Z" fill="#1D1D1D"/>
        <path d="M69.8937 18.0865V5.72168L75.6922 5.72168C76.665 5.72168 77.4585 5.90728 78.0729 6.27848C78.7001 6.64968 79.1674 7.15528 79.4746 7.79528C79.7818 8.43528 79.9354 9.16488 79.9354 9.98408C79.9354 10.8161 79.7562 11.5521 79.3978 12.1921C79.0522 12.8321 78.553 13.3313 77.9002 13.6897C77.2602 14.0353 76.4986 14.2081 75.6154 14.2081H72.4858V18.0865H69.8937ZM72.4858 12.1537H75.0778C75.8201 12.1537 76.3769 11.9617 76.7481 11.5777C77.1322 11.1809 77.3242 10.6497 77.3242 9.98408C77.3242 9.26728 77.145 8.72328 76.7866 8.35208C76.4282 7.96808 75.8906 7.77608 75.1738 7.77608H72.4858V12.1537Z" fill="#1D1D1D"/>
        <path d="M83.8546 18.2785C83.2786 18.2785 82.741 18.1761 82.2418 17.9713C81.7554 17.7537 81.3586 17.4401 81.0513 17.0305C80.757 16.6081 80.6098 16.0833 80.6098 15.4561C80.6098 14.5601 80.9234 13.8433 81.5505 13.3057C82.1906 12.7681 83.1314 12.4993 84.373 12.4993H87.061V12.2497C87.061 11.6865 86.9009 11.2897 86.5809 11.0593C86.2737 10.8289 85.6466 10.7137 84.6994 10.7137C83.6626 10.7137 82.6642 10.8737 81.7042 11.1937V9.36968C82.1266 9.20328 82.6385 9.06888 83.2402 8.96648C83.8545 8.85128 84.5202 8.79368 85.2369 8.79368C86.6066 8.79368 87.6626 9.07528 88.405 9.63848C89.1602 10.1889 89.5378 11.0785 89.5378 12.3073V18.0865H87.2913L87.1569 17.2609C86.7985 17.5809 86.357 17.8305 85.8322 18.0097C85.3074 18.1889 84.6482 18.2785 83.8546 18.2785ZM84.565 16.5697C85.141 16.5697 85.6401 16.4737 86.0625 16.2817C86.485 16.0897 86.8177 15.8465 87.061 15.5521V14.1121H84.4306C83.4194 14.1121 82.9137 14.5281 82.9137 15.3601C82.9137 16.1665 83.4642 16.5697 84.565 16.5697Z" fill="#1D1D1D"/>
        <path d="M93.1535 18.0865L90.7535 8.98568H93.3455L94.7279 14.8993L96.2447 10.1569V8.98568H98.2223L99.9503 14.8993L101.294 8.98568H103.867L101.486 18.0865H99.1055L97.3583 12.7681L95.5727 18.0865H93.1535Z" fill="#1D1D1D"/>
    </symbol>

    <symbol id="arrow" viewBox="0 0 12 20">
        <path d="M0.709018 10.9901L9.30872 19.5896C9.85572 20.1369 10.7427 20.1369 11.2895 19.5896C11.8363 19.0427 11.8363 18.1558 11.2895 17.6091L3.68007 9.99988L11.2892 2.39096C11.8361 1.84391 11.8361 0.957107 11.2892 0.410284C10.7424 -0.136761 9.85552 -0.136761 9.30852 0.410284L0.708798 9.00985C0.435378 9.28339 0.298828 9.64153 0.298828 9.99983C0.298828 10.3583 0.435648 10.7167 0.709018 10.9901Z"/>
    </symbol>
<!--    there is fill for this svg-->
    <symbol id="heart-full-white" viewBox="0 0 30 30">
        <path d="M8.07107 2C3.61354 2 0 5.61354 0 10.0711C0 12.2116 0.850339 14.2646 2.36396 15.7782L14.2929 27.7071C14.6834 28.0976 15.3166 28.0976 15.7071 27.7071L27.636 15.7782C29.1497 14.2646 30 12.2116 30 10.0711C30 5.61354 26.3865 2 21.9289 2C19.7884 2 17.7354 2.85034 16.2218 4.36396L15 5.58579L13.7782 4.36396C12.2646 2.85034 10.2116 2 8.07107 2Z" fill="white"/>
    </symbol>

    <symbol id="sort-up" viewBox="0 0 20 20">
        <path fill-rule="evenodd" clip-rule="evenodd" d="M4 0.195262C4.26035 -0.0650874 4.68246 -0.0650874 4.94281 0.195262L8.94281 4.19526L8 5.13807L5.13807 2.27614V20H3.80474V2.27614L0.942809 5.13807L0 4.19526L4 0.195262ZM15.1381 1.33333C14.0335 1.33333 13.1381 2.22876 13.1381 3.33333V5.33333H17.1381V3.33333C17.1381 2.22876 16.2426 1.33333 15.1381 1.33333ZM17.1381 6.66667V9.33333H18.4714V3.33333C18.4714 1.49238 16.979 9.93411e-09 15.1381 9.93411e-09C13.2971 9.93411e-09 11.8047 1.49238 11.8047 3.33333V9.33333H13.1381V6.66667H17.1381ZM11.8047 10.6667H15.8047C17.2775 10.6667 18.4714 11.8606 18.4714 13.3333C18.4714 14.1298 18.1222 14.8447 17.5686 15.3333C18.1222 15.822 18.4714 16.5369 18.4714 17.3333C18.4714 18.8061 17.2775 20 15.8047 20H11.8047V10.6667ZM15.8047 14.6667C16.5411 14.6667 17.1381 14.0697 17.1381 13.3333C17.1381 12.597 16.5411 12 15.8047 12H13.1381V14.6667H15.8047ZM13.1381 16H15.8047C16.5411 16 17.1381 16.597 17.1381 17.3333C17.1381 18.0697 16.5411 18.6667 15.8047 18.6667H13.1381V16Z"/>
    </symbol>

    <symbol id="sort-down" viewBox="0 0 20 20">
        <path fill-rule="evenodd" clip-rule="evenodd" d="M3.80474 17.7239V0H5.13807V17.7239L8 14.8619L8.94281 15.8047L4.94281 19.8047C4.81778 19.9298 4.64822 20 4.4714 20C4.29459 20 4.12502 19.9298 4 19.8047L0 15.8047L0.942809 14.8619L3.80474 17.7239ZM15.1381 1.33333C14.0335 1.33333 13.1381 2.22876 13.1381 3.33333V5.33333H17.1381V3.33333C17.1381 2.22876 16.2426 1.33333 15.1381 1.33333ZM17.1381 6.66667V9.33333H18.4714V3.33333C18.4714 1.49238 16.979 0 15.1381 0C13.2971 0 11.8047 1.49238 11.8047 3.33333V9.33333H13.1381V6.66667H17.1381ZM11.8047 10.6667H15.8047C17.2775 10.6667 18.4714 11.8606 18.4714 13.3333C18.4714 14.1298 18.1222 14.8447 17.5686 15.3333C18.1222 15.822 18.4714 16.5369 18.4714 17.3333C18.4714 18.8061 17.2775 20 15.8047 20H11.8047V10.6667ZM15.8047 14.6667C16.5411 14.6667 17.1381 14.0697 17.1381 13.3333C17.1381 12.597 16.5411 12 15.8047 12H13.1381V14.6667H15.8047ZM13.1381 16H15.8047C16.5411 16 17.1381 16.597 17.1381 17.3333C17.1381 18.0697 16.5411 18.6667 15.8047 18.6667H13.1381V16Z"/>
    </symbol>

    <symbol id="download" viewBox="0 0 16 16">
        <path fill-rule="evenodd" clip-rule="evenodd" d="M7.86601 0L12.2355 4.03339L11.4129 4.92452L8.48919 2.22567V12.3618H7.27645V2.30464L4.67336 4.90772L3.81583 4.05019L7.86601 0ZM1.21274 14.7873V7.51081H0V16H15.7656V7.51081H14.5529V14.7873H1.21274Z"/>
    </symbol>

    <symbol id="reload" viewBox="0 0 18 20">
        <path fill-rule="evenodd" clip-rule="evenodd" d="M8.48189 2.49989L6.93396 0.953004L7.88633 0L11.0577 3.16928L7.88634 6.33873L6.93395 5.38576L8.47232 3.84832C4.51244 3.99813 1.3473 7.25498 1.3473 11.2478C1.3473 15.3361 4.66547 18.6527 8.75744 18.6527C12.8494 18.6527 16.1676 15.3361 16.1676 11.2478V10.5742H17.5149V11.2478C17.5149 16.081 13.5927 20 8.75744 20C3.92221 20 0 16.081 0 11.2478C0 6.50682 3.77407 2.64542 8.48189 2.49989Z"/>
    </symbol>

    <symbol id="menu" viewBox="0 0 30 18">
        <path fill-rule="evenodd" clip-rule="evenodd" d="M30 2H0V0H30V2ZM30 10H0V8H30V10ZM30 18H0V16H30V18Z"/>
    </symbol>
</svg>